<?xml version="1.0" encoding="utf-8"?><svg xmlns="http://www.w3.org/2000/svg" xmlns:xlink="http://www.w3.org/1999/xlink"><symbol viewBox="0 0 24 24" id="1" xmlns="http://www.w3.org/2000/svg">
    <desc>
        Created with Pixso.
    </desc>
    <defs>
        <clipPath id="aclip3_1210">
            <rect width="24.000000" height="24.000000" fill-opacity="0"/>
        </clipPath>
    </defs>
    <rect width="24.000000" height="24.000000" fill-opacity="1.000000"/>
    <g clip-path="url(#aclip3_1210)">
        <path d="M15.75 14.25L14.96 14.25L14.68 13.98C15.66 12.84 16.25 11.36 16.25 9.75C16.25 6.16 13.34 3.25 9.75 3.25C6.16 3.25 3.25 6.16 3.25 9.75C3.25 13.34 6.16 16.25 9.75 16.25C11.36 16.25 12.84 15.66 13.98 14.68L14.25 14.96L14.25 15.75L19.25 20.74L20.74 19.25L15.75 14.25ZM9.75 14.25C7.26 14.25 5.25 12.24 5.25 9.75C5.25 7.26 7.26 5.25 9.75 5.25C12.24 5.25 14.25 7.26 14.25 9.75C14.25 12.24 12.24 14.25 9.75 14.25Z" fill-opacity="1.000000" fill-rule="nonzero"/>
    </g>
</symbol><symbol viewBox="0 0 24 24" id="2" xmlns="http://www.w3.org/2000/svg">
    <desc>
        Created with Pixso.
    </desc>
    <defs>
        <clipPath id="bclip3_1219">
            <rect width="24.000000" height="24.000000" fill-opacity="0"/>
        </clipPath>
    </defs>
    <rect width="24.000000" height="24.000000" fill-opacity="0"/>
    <g clip-path="url(#bclip3_1219)">
        <path d="M18 6L16 6C16 3.78 14.21 2 12 2C9.79 2 8 3.78 8 6L6 6C4.9 6 4 6.89 4 8L4 20C4 21.1 4.9 22 6 22L18 22C19.09 22 20 21.1 20 20L20 8C20 6.89 19.09 6 18 6ZM12 4C13.09 4 14 4.89 14 6L10 6C10 4.89 10.9 4 12 4ZM18 20L6 20L6 8L8 8L8 10C8 10.55 8.45 11 9 11C9.54 11 10 10.55 10 10L10 8L14 8L14 10C14 10.55 14.45 11 15 11C15.54 11 16 10.55 16 10L16 8L18 8L18 20Z" fill-opacity="1.000000" fill-rule="nonzero"/>
    </g>
</symbol><symbol viewBox="0 0 24 24" id="3" xmlns="http://www.w3.org/2000/svg">
    <desc>
        Created with Pixso.
    </desc>
    <defs>
        <clipPath id="cclip3_1216">
            <rect width="24.000000" height="24.000000" fill-opacity="0"/>
        </clipPath>
    </defs>
    <rect width="24.000000" height="24.000000" fill-opacity="0"/>
    <g clip-path="url(#cclip3_1216)">
        <path d="M12 21.17L10.54 19.85C5.4 15.18 2 12.1 2 8.32C2 5.24 4.41 2.82 7.5 2.82C9.24 2.82 10.91 3.63 12 4.91C13.08 3.63 14.75 2.82 16.5 2.82C19.58 2.82 22 5.24 22 8.32C22 12.1 18.59 15.18 13.45 19.86L12 21.17Z" fill-opacity="1.000000" fill-rule="nonzero"/>
        <path d="M10.58 3.7C9.66 3.14 8.59 2.82 7.5 2.82C4.41 2.82 2 5.24 2 8.32C2 12.1 5.4 15.18 10.54 19.85L12 21.17L13.45 19.86C18.59 15.18 22 12.1 22 8.32C22 5.24 19.58 2.82 16.5 2.82C15.4 2.82 14.33 3.14 13.41 3.7C12.88 4.03 12.4 4.44 12 4.91C11.59 4.44 11.11 4.03 10.58 3.7ZM12 18.47L11.89 18.37L11.89 18.37L11.88 18.35Q10.62 17.22 10.04 16.69Q9.1 15.82 8.42 15.16Q6.81 13.62 5.88 12.48Q4.89 11.26 4.43 10.24Q4 9.26 4 8.32Q4 7.77 4.15 7.27Q4.2 7.1 4.27 6.93Q4.41 6.6 4.6 6.31Q4.78 6.05 5 5.83Q5.23 5.6 5.49 5.43Q5.77 5.23 6.11 5.09Q6.27 5.02 6.44 4.97Q6.95 4.82 7.5 4.82Q7.73 4.82 7.96 4.85Q8.56 4.92 9.14 5.19Q9.68 5.45 10.11 5.83Q10.3 6.01 10.47 6.21L12 8L13.52 6.21Q13.69 6.01 13.88 5.83Q14.31 5.45 14.85 5.19Q15.43 4.92 16.03 4.85Q16.26 4.82 16.5 4.82Q17.04 4.82 17.55 4.97Q17.72 5.02 17.88 5.09Q18.22 5.23 18.5 5.43Q18.76 5.6 18.99 5.83Q19.21 6.05 19.39 6.31Q19.58 6.6 19.72 6.93Q19.79 7.1 19.84 7.27Q20 7.77 20 8.32Q20 9.26 19.56 10.24Q19.11 11.26 18.11 12.47Q17.19 13.6 15.59 15.15Q14.91 15.81 13.97 16.67Q13.39 17.21 12.14 18.34L12.13 18.35L12.12 18.36L12.12 18.36L12.12 18.36L12.12 18.36L12.12 18.37L12.11 18.37L12.11 18.37L12.11 18.37L12.11 18.37L12.11 18.37L12.11 18.37L12.1 18.38L12.1 18.38L12 18.47Z" fill-opacity="1.000000" fill-rule="evenodd"/>
    </g>
</symbol><symbol viewBox="0 0 24 24" id="4" xmlns="http://www.w3.org/2000/svg">
    <desc>
        Created with Pixso.
    </desc>
    <defs>
        <clipPath id="dclip3_1213">
            <rect width="24.000000" height="24.000000" fill-opacity="0"/>
        </clipPath>
    </defs>
    <rect width="24.000000" height="24.000000" fill-opacity="0"/>
    <g clip-path="url(#dclip3_1213)">
        <path d="M16 8.5C16 10.71 14.21 12.5 12 12.5C9.79 12.5 8 10.71 8 8.5L8 5C8 4.17 8.66 3.5 9.5 3.5C10.01 3.5 10.48 3.76 10.75 4.17C11.01 3.76 11.48 3.5 12 3.5C12.51 3.5 12.98 3.76 13.25 4.17C13.51 3.76 13.98 3.5 14.5 3.5C15.33 3.5 16 4.17 16 5L16 8.5ZM14 8.5L14 6L10 6L10 8.5C10 9.6 10.9 10.5 12 10.5C13.09 10.5 14 9.6 14 8.5ZM12 13.5C14.53 13.5 16.7 14.19 18.38 15.05C19.38 15.57 20 16.6 20 17.71L20 20.5L4 20.5L4 17.71C4 16.6 4.61 15.57 5.61 15.05C7.29 14.19 9.46 13.5 12 13.5ZM6 17.71L6 18.5L18 18.5L18 17.71C18 17.33 17.79 17 17.48 16.83C16.29 16.23 14.37 15.5 12 15.5C9.62 15.5 7.7 16.23 6.51 16.83C6.2 17 6 17.33 6 17.71Z" fill-opacity="1.000000" fill-rule="evenodd"/>
    </g>
</symbol></svg>