<?xml version="1.0" encoding="utf-8"?><svg viewBox="0 0 24 24" xmlns="http://www.w3.org/2000/svg" xmlns:xlink="http://www.w3.org/1999/xlink"><style>:root>svg{display:none}:root>svg:target{display:block}</style><svg fill="none" viewBox="0 0 24 24" id="1" xmlns="http://www.w3.org/2000/svg">
    <defs>
        <clipPath id="aa">
            <path fill="#fff" fill-opacity="0" d="M0 0h24v24H0z"/>
        </clipPath>
    </defs>
    <path fill="#FFF" d="M0 0h24v24H0z"/>
    <g clip-path="url(#aa)">
        <path d="M15.75 14.25h-.79l-.28-.27a6.471 6.471 0 0 0 1.57-4.23 6.5 6.5 0 1 0-6.5 6.5c1.61 0 3.09-.59 4.23-1.57l.27.28v.79l5 4.99 1.49-1.49-4.99-5Zm-6 0c-2.49 0-4.5-2.01-4.5-4.5s2.01-4.5 4.5-4.5 4.5 2.01 4.5 4.5-2.01 4.5-4.5 4.5Z" fill="#0C0C0C"/>
    </g>
</svg><svg fill="none" viewBox="0 0 24 24" id="2" xmlns="http://www.w3.org/2000/svg">
    <defs>
        <clipPath id="ba">
            <path fill="#fff" fill-opacity="0" d="M0 0h24v24H0z"/>
        </clipPath>
    </defs>
    <path fill="none" d="M0 0h24v24H0z"/>
    <g clip-path="url(#ba)">
        <path d="M18 6h-2c0-2.22-1.79-4-4-4S8 3.78 8 6H6a2 2 0 0 0-2 2v12c0 1.1.9 2 2 2h12c1.09 0 2-.9 2-2V8c0-1.11-.91-2-2-2Zm-6-2c1.09 0 2 .89 2 2h-4a2 2 0 0 1 2-2Zm6 16H6V8h2v2c0 .55.45 1 1 1 .54 0 1-.45 1-1V8h4v2c0 .55.45 1 1 1 .54 0 1-.45 1-1V8h2v12Z" fill="#202020"/>
    </g>
</svg><svg fill="none" viewBox="0 0 24 24" id="3" xmlns="http://www.w3.org/2000/svg">
    <defs>
        <clipPath id="ca">
            <path fill="#fff" fill-opacity="0" d="M0 0h24v24H0z"/>
        </clipPath>
    </defs>
    <path fill="none" d="M0 0h24v24H0z"/>
    <g clip-path="url(#ca)">
        <path d="m12 21.17-1.46-1.32C5.4 15.18 2 12.1 2 8.32c0-3.08 2.41-5.5 5.5-5.5 1.74 0 3.41.81 4.5 2.09a5.956 5.956 0 0 1 4.5-2.09c3.08 0 5.5 2.42 5.5 5.5 0 3.78-3.41 6.86-8.55 11.54L12 21.17Z" fill="#FFF"/>
        <path d="M10.58 3.7c-.92-.56-1.99-.88-3.08-.88-3.09 0-5.5 2.42-5.5 5.5 0 3.78 3.4 6.86 8.54 11.53L12 21.17l1.45-1.31C18.59 15.18 22 12.1 22 8.32c0-3.08-2.42-5.5-5.5-5.5-1.1 0-2.17.32-3.09.88-.53.33-1.01.74-1.41 1.21-.41-.47-.89-.88-1.42-1.21ZM12 18.47l-.11-.1-.01-.02q-1.26-1.13-1.84-1.66-.94-.87-1.62-1.53-1.61-1.54-2.54-2.68-.99-1.22-1.45-2.24Q4 9.26 4 8.32q0-.55.15-1.05.05-.17.12-.34.14-.33.33-.62.18-.26.4-.48.23-.23.49-.4.28-.2.62-.34.16-.07.33-.12.51-.15 1.06-.15.23 0 .46.03.6.07 1.18.34.54.26.97.64.19.18.36.38L12 8l1.52-1.79q.17-.2.36-.38.43-.38.97-.64.58-.27 1.18-.34.23-.03.47-.03.54 0 1.05.15.17.05.33.12.34.14.62.34.26.17.49.4.22.22.4.48.19.29.33.62.07.17.12.34.16.5.16 1.05 0 .94-.44 1.92-.45 1.02-1.45 2.23-.92 1.13-2.52 2.68-.68.66-1.62 1.52-.58.54-1.83 1.67l-.01.01-.01.01v.01h-.01l-.01.01-.1.09Z" fill="#202020" fill-rule="evenodd"/>
    </g>
</svg><svg fill="none" viewBox="0 0 24 24" id="4" xmlns="http://www.w3.org/2000/svg">
    <defs>
        <clipPath id="da">
            <path fill="#fff" fill-opacity="0" d="M0 0h24v24H0z"/>
        </clipPath>
    </defs>
    <path fill="none" d="M0 0h24v24H0z"/>
    <g clip-path="url(#da)">
        <path d="M16 8.5c0 2.21-1.79 4-4 4s-4-1.79-4-4V5c0-.83.66-1.5 1.5-1.5.51 0 .98.26 1.25.67.26-.41.73-.67 1.25-.67.51 0 .98.26 1.25.67.26-.41.73-.67 1.25-.67.83 0 1.5.67 1.5 1.5v3.5Zm-2 0V6h-4v2.5c0 1.1.9 2 2 2 1.09 0 2-.9 2-2Zm-2 5c2.53 0 4.7.69 6.38 1.55 1 .52 1.62 1.55 1.62 2.66v2.79H4v-2.79c0-1.11.61-2.14 1.61-2.66 1.68-.86 3.85-1.55 6.39-1.55Zm-6 4.21v.79h12v-.79c0-.38-.21-.71-.52-.88-1.19-.6-3.11-1.33-5.48-1.33-2.38 0-4.3.73-5.49 1.33-.31.17-.51.5-.51.88Z" fill="#202020" fill-rule="evenodd"/>
    </g>
</svg></svg>