<svg width="24.000000" height="24.000000" viewBox="0 0 24 24" fill="none" xmlns="http://www.w3.org/2000/svg" xmlns:xlink="http://www.w3.org/1999/xlink">
	<desc>
			Created with Pixso.
	</desc>
	<defs>
		<clipPath id="clip3_1216">
			<rect width="24.000000" height="24.000000" fill="white" fill-opacity="0"/>
		</clipPath>
	</defs>
	<rect width="24.000000" height="24.000000" fill="#FFFFFF" fill-opacity="0"/>
	<g clip-path="url(#clip3_1216)">
		<path d="M12 21.17L10.54 19.85C5.4 15.18 2 12.1 2 8.32C2 5.24 4.41 2.82 7.5 2.82C9.24 2.82 10.91 3.63 12 4.91C13.08 3.63 14.75 2.82 16.5 2.82C19.58 2.82 22 5.24 22 8.32C22 12.1 18.59 15.18 13.45 19.86L12 21.17Z" fill="#FFFFFF" fill-opacity="1.000000" fill-rule="nonzero"/>
		<path d="M10.58 3.7C9.66 3.14 8.59 2.82 7.5 2.82C4.41 2.82 2 5.24 2 8.32C2 12.1 5.4 15.18 10.54 19.85L12 21.17L13.45 19.86C18.59 15.18 22 12.1 22 8.32C22 5.24 19.58 2.82 16.5 2.82C15.4 2.82 14.33 3.14 13.41 3.7C12.88 4.03 12.4 4.44 12 4.91C11.59 4.44 11.11 4.03 10.58 3.7ZM12 18.47L11.89 18.37L11.89 18.37L11.88 18.35Q10.62 17.22 10.04 16.69Q9.1 15.82 8.42 15.16Q6.81 13.62 5.88 12.48Q4.89 11.26 4.43 10.24Q4 9.26 4 8.32Q4 7.77 4.15 7.27Q4.2 7.1 4.27 6.93Q4.41 6.6 4.6 6.31Q4.78 6.05 5 5.83Q5.23 5.6 5.49 5.43Q5.77 5.23 6.11 5.09Q6.27 5.02 6.44 4.97Q6.95 4.82 7.5 4.82Q7.73 4.82 7.96 4.85Q8.56 4.92 9.14 5.19Q9.68 5.45 10.11 5.83Q10.3 6.01 10.47 6.21L12 8L13.52 6.21Q13.69 6.01 13.88 5.83Q14.31 5.45 14.85 5.19Q15.43 4.92 16.03 4.85Q16.26 4.82 16.5 4.82Q17.04 4.82 17.55 4.97Q17.72 5.02 17.88 5.09Q18.22 5.23 18.5 5.43Q18.76 5.6 18.99 5.83Q19.21 6.05 19.39 6.31Q19.58 6.6 19.72 6.93Q19.79 7.1 19.84 7.27Q20 7.77 20 8.32Q20 9.26 19.56 10.24Q19.11 11.26 18.11 12.47Q17.19 13.6 15.59 15.15Q14.91 15.81 13.97 16.67Q13.39 17.21 12.14 18.34L12.13 18.35L12.12 18.36L12.12 18.36L12.12 18.36L12.12 18.36L12.12 18.37L12.11 18.37L12.11 18.37L12.11 18.37L12.11 18.37L12.11 18.37L12.11 18.37L12.1 18.38L12.1 18.38L12 18.47Z" fill="#202020" fill-opacity="1.000000" fill-rule="evenodd"/>
	</g>
</svg>
